<svg xmlns="http://www.w3.org/2000/svg" viewBox="0 0 64 64" id="winter-clothing"><polygon fill="#94c1ff" points="46 63 29 63 29 60 34 60 46 60 46 63"></polygon><path fill="#5c9eff" d="M34,60H29V55A5.00182,5.00182,0,0,1,34,60Z"></path><path fill="#d7e9ff" d="M46,57v3H34a5.00182,5.00182,0,0,0-5-5V46H39v8h4A2.996,2.996,0,0,1,46,57Z"></path><rect width="18" height="3" x="35" y="35" fill="#94c1ff"></rect><polygon fill="#94c1ff" points="60 42 60 45 55 45 43 45 43 42 60 42"></polygon><path fill="#5c9eff" d="M60,45v5a5.00182,5.00182,0,0,1-5-5Z"></path><rect width="4" height="3" x="54" y="30" fill="#94c1ff"></rect><path fill="#d7e9ff" d="M60,59H50V51H46a2.996,2.996,0,0,1-3-3V45H55a5.00182,5.00182,0,0,0,5,5Z"></path><rect width="4" height="3" x="30" y="30" fill="#94c1ff"></rect><polygon fill="#94c1ff" points="46 4.92 46 5 42 5 42 1 46 1 46 4.92"></polygon><rect width="3" height="4" x="39" y="1" fill="#94c1ff"></rect><polygon fill="#94c1ff" points="49 1 49 5 46 5 46 4.92 46 1 49 1"></polygon><path fill="#d7e9ff" d="M54,33v2H34V30H29V10a5.00182,5.00182,0,0,1,5-5H54a5.00182,5.00182,0,0,1,5,5V30H54Z"></path><rect width="3" height="14" x="19" y="8" fill="#5c9eff"></rect><polygon fill="#94c1ff" points="24 22 24 25 23.8 25 14 25 14 22.13 14 22 19 22 22 22 24 22"></polygon><rect width="3" height="4" x="19" y="1" fill="#5c9eff"></rect><rect width="3" height="3" x="19" y="5" fill="#d7e9ff"></rect><polygon fill="#94c1ff" points="14 25 23.8 25 24 25 24 63 14 63 4 63 4 25 4.2 25 14 25"></polygon><rect width="3" height="14" x="6" y="8" fill="#5c9eff"></rect><rect width="3" height="3" x="6" y="5" fill="#d7e9ff"></rect><polygon fill="#94c1ff" points="4 22 6 22 9 22 14 22 14 22.13 14 25 4.2 25 4 25 4 22"></polygon><rect width="3" height="4" x="6" y="1" fill="#5c9eff"></rect><path fill="#116fff" d="M53.999 36.002H34a.99942.99942 0 01-1-1v-21.999a1 1 0 012 0V34.002H52.999v-20.999a1 1 0 112 0V35.002A.99942.99942 0 0153.999 36.002zM48.999 6.00293a.99943.99943 0 01-1-1V1a1 1 0 012 0V5.00293A.99942.99942 0 0148.999 6.00293z"></path><path fill="#116fff" d="M48.999,2H39a1,1,0,0,1,0-2h9.999a1,1,0,0,1,0,2Z"></path><path fill="#116fff" d="M39 6.00293a.99943.99943 0 01-1-1V1a1 1 0 012 0V5.00293A.99943.99943 0 0139 6.00293zM53.999 6.00293h-5a1 1 0 010-2h5a1 1 0 010 2z"></path><path fill="#116fff" d="M48.999,6.00293H34a1,1,0,0,1,0-2H48.999a1,1,0,0,1,0,2Z"></path><path fill="#116fff" d="M29,11.001a.99943.99943,0,0,1-1-1,6.00656,6.00656,0,0,1,6-6,1,1,0,0,1,0,2,4.004,4.004,0,0,0-4,4A.99943.99943,0,0,1,29,11.001Z"></path><path fill="#116fff" d="M29,31.00293a.99943.99943,0,0,1-1-1V10.001a1,1,0,1,1,2,0v20.002A.99943.99943,0,0,1,29,31.00293Z"></path><path fill="#116fff" d="M34 31.00293H29a1 1 0 010-2h5a1 1 0 010 2zM59 11.001a.99943.99943 0 01-1-1 4.004 4.004 0 00-4-4 1 1 0 010-2 6.00656 6.00656 0 016 6A.99943.99943 0 0159 11.001z"></path><path fill="#116fff" d="M59,31.00293a.99943.99943,0,0,1-1-1V10.001a1,1,0,1,1,2,0v20.002A.99943.99943,0,0,1,59,31.00293Z"></path><path fill="#116fff" d="M59 31.00293H54a1 1 0 010-2h5a1 1 0 010 2zM46 5.919a.99943.99943 0 01-1-1V1a1 1 0 012 0V4.919A.99943.99943 0 0146 5.919zM42 6.00293a.99943.99943 0 01-1-1V1a1 1 0 012 0V5.00293A.99943.99943 0 0142 6.00293z"></path><path fill="#116fff" d="M58 34H53.999a.99943.99943 0 01-1-1V30.00293a.99943.99943 0 011-1H58a.99943.99943 0 011 1V33A.99943.99943 0 0158 34zm-3.001-2H57v-.99707H54.999zM34.001 34H29.999a.99943.99943 0 01-1-1V30.00293a.99943.99943 0 011-1h4.002a.99943.99943 0 011 1V33A.99943.99943 0 0134.001 34zm-3.002-2h2.002v-.99707H30.999zM53.002 39H35a.99943.99943 0 01-1-1V35.00293a.99943.99943 0 011-1H53.002a.99942.99942 0 011 1V38A.99942.99942 0 0153.002 39zM36 37H52.002v-.99707H36zM23.99805 64H4.002a.99943.99943 0 01-1-1L3 22a1.00026 1.00026 0 011-1H24a1.00026 1.00026 0 011 1l-.002 41A.99943.99943 0 0123.99805 64zM5.002 62h17.9961L23 23H5z"></path><path fill="#116fff" d="M14 64a.99943.99943 0 01-1-1V33a1 1 0 012 0V63A.99943.99943 0 0114 64zM23.7998 26H4.2002a1 1 0 110-2H23.7998a1 1 0 110 2z"></path><path fill="#116fff" d="M14 29a.99943.99943 0 01-1-1V22.12891a1 1 0 012 0V28A.99943.99943 0 0114 29zM22 23H19a.99943.99943 0 01-1-1V1a.99943.99943 0 011-1h3a.99943.99943 0 011 1V22A.99943.99943 0 0122 23zm-2-2h1V2H20zM9 23H6a.99943.99943 0 01-1-1V1A.99943.99943 0 016 0H9a.99943.99943 0 011 1V22A.99943.99943 0 019 23zM7 21H8V2H7z"></path><path fill="#116fff" d="M9 6H6A1 1 0 016 4H9A1 1 0 019 6zM9 9H6A1 1 0 016 7H9A1 1 0 019 9zM22 6H19a1 1 0 010-2h3a1 1 0 010 2zM22 9H19a1 1 0 010-2h3a1 1 0 010 2zM29 61a.99943.99943 0 01-1-1V46a1 1 0 012 0V60A.99943.99943 0 0129 61z"></path><path fill="#116fff" d="M46 64H29a.99943.99943 0 01-1-1V60a.99943.99943 0 011-1H46a.99943.99943 0 011 1v3A.99943.99943 0 0146 64zM30 62H45V61H30zM46 58a.99943.99943 0 01-1-1 2.0026 2.0026 0 00-2-2 1 1 0 010-2 4.004 4.004 0 014 4A.99943.99943 0 0146 58z"></path><path fill="#116fff" d="M46 61a.99943.99943 0 01-1-1V57a1 1 0 012 0v3A.99943.99943 0 0146 61zM43 55H39a1 1 0 010-2h4a1 1 0 010 2z"></path><path fill="#116fff" d="M39,55a.99943.99943,0,0,1-1-1V46a1,1,0,0,1,2,0v8A.99943.99943,0,0,1,39,55Z"></path><path fill="#116fff" d="M39 47H29a1 1 0 010-2H39a1 1 0 010 2zM39 53H38a1 1 0 010-2h1a1 1 0 010 2zM39 50H38a1 1 0 010-2h1a1 1 0 010 2zM34 61a.99943.99943 0 01-1-1 4.004 4.004 0 00-4-4 1 1 0 010-2 6.00657 6.00657 0 016 6A.99943.99943 0 0134 61zM60 60a.99943.99943 0 01-1-1V45a1 1 0 012 0V59A.99943.99943 0 0160 60z"></path><path fill="#116fff" d="M60 46H43a.99943.99943 0 01-1-1V42a.99943.99943 0 011-1H60a.99943.99943 0 011 1v3A.99943.99943 0 0160 46zM44 44H59V43H44zM46 52a4.004 4.004 0 01-4-4 1 1 0 012 0 2.0026 2.0026 0 002 2 1 1 0 010 2z"></path><path fill="#116fff" d="M43 49a.99943.99943 0 01-1-1V45a1 1 0 012 0v3A.99943.99943 0 0143 49zM50 52H46a1 1 0 010-2h4a1 1 0 010 2z"></path><path fill="#116fff" d="M50,60a.99943.99943,0,0,1-1-1V51a1,1,0,0,1,2,0v8A.99943.99943,0,0,1,50,60Z"></path><path fill="#116fff" d="M60 60H50a1 1 0 010-2H60a1 1 0 010 2zM51 54H50a1 1 0 010-2h1a1 1 0 010 2zM51 57H50a1 1 0 010-2h1a1 1 0 010 2zM60 51a6.00657 6.00657 0 01-6-6 1 1 0 012 0 4.004 4.004 0 004 4 1 1 0 010 2z"></path></svg>