<svg xmlns="http://www.w3.org/2000/svg" viewBox="0 0 64 64" id="drummer"><g data-name="25. Drummer"><path fill="#2f79f0" d="M51.79,7.26a2,2,0,0,0-2.65,1l-3.7,8.14C37.33,15.91,41.8,16,25,16l-6.44.4-3.7-8.14a2,2,0,0,0-3.72,1.48l3.54,10.19a2.32,2.32,0,0,0,2.05,1.55l8,.51C23.89,39.28,24,36.24,24,39H40c0-2.78.11.27-.71-17l8-.51a2.3,2.3,0,0,0,2-1.55L52.86,9.74A2,2,0,0,0,51.79,7.26Z"></path><path fill="#b7dbf9" d="M13,37H25a0,0,0,0,1,0,0V49a0,0,0,0,1,0,0H15a2,2,0,0,1-2-2V37A0,0,0,0,1,13,37Z"></path><rect width="13" height="2" x="12" y="35" fill="#f8cf6d"></rect><path fill="#b7dbf9" d="M39,37H51a0,0,0,0,1,0,0V47a2,2,0,0,1-2,2H39a0,0,0,0,1,0,0V37A0,0,0,0,1,39,37Z"></path><circle cx="32" cy="7" r="7" fill="#88b8f9"></circle><rect width="13" height="2" x="39" y="35" fill="#f8cf6d"></rect><rect width="16" height="8" x="24" y="32" fill="#b7dbf9"></rect><circle cx="32" cy="49" r="15" fill="#88b8f9"></circle><rect width="18" height="2" x="23" y="30" fill="#f8cf6d"></rect><circle cx="32" cy="49" r="12" fill="#2f79f0"></circle><path fill="#88b8f9" d="M15.64,62.23,10,57.53V22a1,1,0,0,0-2,0V57.53l-5.64,4.7a1,1,0,0,0,1.28,1.54L8,60.14V63a1,1,0,0,0,2,0V60.14l4.36,3.63a1,1,0,1,0,1.28-1.54Z"></path><path fill="#f8cf6d" d="M17,28H1a1,1,0,0,1-.24-2l8-2c.34-.09-.25-.18,8.48,2A1,1,0,0,1,17,28Z"></path><path fill="#88b8f9" d="M61.64,62.23,56,57.53V22a1,1,0,0,0-2,0V57.53l-5.64,4.7a1,1,0,1,0,1.28,1.54L54,60.14V63a1,1,0,0,0,2,0V60.14l4.36,3.63a1,1,0,0,0,1.28-1.54Z"></path><path fill="#f8cf6d" d="M63,28H47a1,1,0,0,1-.24-2l8-2c.34-.09-.25-.18,8.48,2A1,1,0,0,1,63,28Z"></path><path fill="#ee7231" d="M10 13a1 1 0 01-.66-1.75l8-7a1 1 0 111.32 1.5C10 13.34 10.53 13 10 13zM54 13c-.53 0 0 .37-8.66-7.25a1 1 0 011.32-1.5l8 7A1 1 0 0154 13z"></path><circle cx="36" cy="54" r="2" fill="#fffeff"></circle></g></svg>