<svg xmlns="http://www.w3.org/2000/svg" xmlns:xlink="http://www.w3.org/1999/xlink" viewBox="0 0 64 64" id="shop"><path fill="#969798" d="m60.83 53.62-15.51-8.44 2.72-.39 15.51 8.45z"></path><path fill="#969798" d="m49.37 55.23-15.51-8.44 11.46-1.61 15.51 8.44zM40.19 56.52l-15.52-8.44 9.19-1.29 15.51 8.44z"></path><path fill="#969798" d="m39.2 56.66-15.52-8.44.99-.14 15.52 8.44zM30.02 57.95 14.5 49.51l9.18-1.29 15.52 8.44z"></path><path fill="#969798" d="M18.55 59.56 3.03 51.12l11.47-1.61 15.52 8.44z"></path><path fill="#777879" d="M15.83 63.08.32 54.64V51.5l15.52 8.44z"></path><path fill="#b1b2b2" d="M63.55 53.24v3.14l-47.72 6.7.01-3.14 2.71-.38 11.47-1.61 9.18-1.29.99-.14 9.18-1.29 11.46-1.61z"></path><path fill="#969798" d="M15.84 59.94.32 51.5l2.71-.38 15.52 8.44z"></path><defs><path id="a" d="M44.43 17.35c.32-.05.63-.13.93-.25l15.52 8.44c-.3.12-.61.2-.93.25-5.17-2.82-10.34-5.63-15.52-8.44z"></path></defs><clipPath id="b"><use overflow="visible" xlink:href="#a"></use></clipPath><g clip-path="url(#b)"><path fill="#a4a5a7" d="m58.55 25.72-15.52-8.44c.44.11.91.14 1.4.07.32-.05.63-.13.93-.25l15.52 8.44c-.3.12-.61.2-.93.25-.49.07-.96.04-1.4-.07"></path></g><defs><path id="c" d="M42.27 16.97c.63.34 1.37.48 2.17.37 5.17 2.81 10.35 5.63 15.52 8.44-.8.11-1.54-.03-2.17-.37-4.66-2.53-10.87-5.9-15.52-8.44z"></path></defs><clipPath id="d"><use overflow="visible" xlink:href="#c"></use></clipPath><g clip-path="url(#d)"><path fill="#9d9ea0" d="m57.79 25.42-15.52-8.44.12.06 15.52 8.44-.12-.06"></path><path fill="#a0a2a4" d="m57.91 25.48-15.52-8.44c.2.1.42.18.64.24l15.52 8.44a3.51 3.51 0 0 1-.64-.24"></path><path fill="#a4a5a7" d="m58.55 25.72-15.52-8.44c.44.11.91.14 1.4.07.32-.05.63-.13.93-.25l15.52 8.44c-.3.12-.61.2-.93.25-.49.07-.96.04-1.4-.07"></path></g><defs><path id="e" d="m57.79 25.42-15.52-8.44c-1.13-.61-1.88-1.87-1.87-3.42L55.92 22c-.01 1.55.74 2.8 1.87 3.42z"></path></defs><clipPath id="f"><use overflow="visible" xlink:href="#e"></use></clipPath><g clip-path="url(#f)"><path fill="#741833" d="m57.79 25.42-15.52-8.44c-1.13-.61-1.88-1.87-1.87-3.42L55.92 22c-.01 1.55.74 2.8 1.87 3.42"></path></g><path fill="#888a8c" d="m49.37 55.23-15.51-8.44.04-22.03 15.52 8.45z"></path><path fill="#731732" d="m55.91 21.99-15.52-8.44.01-1.83 15.51 8.44z"></path><path fill="#8c2441" d="M55.91 20.16 40.4 11.72l8.08-1.14L64 19.03z"></path><path fill="#a22d4c" d="M64 19.03v1.83c0 1.21-.46 2.36-1.19 3.26a4.97 4.97 0 0 1-1.92 1.43c-.3.12-.61.2-.93.25-2.24.31-4.05-1.38-4.04-3.79v-1.83L64 19.03z"></path><defs><path id="g" d="M26.12 38.45c.35-.05.63-.39.63-.77l15.52 8.44c0 .38-.28.72-.63.77-.12.02-.24 0-.34-.06l-15.52-8.44c.1.06.22.08.34.06z"></path></defs><clipPath id="h"><use overflow="visible" xlink:href="#g"></use></clipPath><g clip-path="url(#h)"><path fill="#263f56" d="m41.3 46.83-15.52-8.44c.01 0 .01.01.02.01l15.52 8.44s-.01 0-.02-.01"></path><path fill="#274058" d="M41.32 46.84 25.81 38.4a.3.3 0 0 0 .1.04l15.52 8.44a.487.487 0 0 1-.11-.04"></path><path fill="#284159" d="M41.42 46.88 25.9 38.44a.546.546 0 0 0 .4-.05l15.52 8.44c-.06.03-.12.05-.18.06-.08.01-.15.01-.22-.01"></path><path fill="#274058" d="M41.83 46.84 26.31 38.4c.04-.02.07-.04.1-.06l15.52 8.44c-.03.02-.07.04-.1.06"></path><path fill="#263f56" d="m41.93 46.78-15.52-8.44c.03-.02.05-.04.08-.06L42 46.72c-.02.02-.05.04-.07.06"></path><path fill="#253e55" d="m42 46.72-15.52-8.44.06-.06 15.52 8.44a.17.17 0 0 1-.06.06"></path><path fill="#243c53" d="m42.07 46.65-15.52-8.44c.02-.02.04-.05.06-.07l15.52 8.44c-.02.03-.04.05-.06.07"></path><path fill="#233b52" d="M42.12 46.58 26.6 38.14c.02-.03.04-.05.05-.08l15.52 8.44c-.01.03-.03.06-.05.08"></path><path fill="#223a51" d="m42.17 46.5-15.52-8.44c.02-.03.03-.07.05-.11l15.52 8.44a.37.37 0 0 1-.05.11"></path><path fill="#21394f" d="M42.22 46.39 26.7 37.95c.03-.08.05-.18.05-.27l15.52 8.44c0 .1-.02.19-.05.27"></path></g><path fill="#20384e" d="m42.27 46.13-15.52-8.45v-1.66l15.52 8.44z"></path><defs><path id="i" d="m41.3 46.83-15.52-8.44a.602.602 0 0 1-.29-.53l15.52 8.44c0 .24.12.44.29.53z"></path></defs><clipPath id="j"><use overflow="visible" xlink:href="#i"></use></clipPath><g clip-path="url(#j)"><path fill="#8a8c8e" d="m41.3 46.83-15.52-8.44a.602.602 0 0 1-.29-.53l15.52 8.44c0 .24.12.44.29.53"></path></g><defs><path id="k" d="m26.46 35.49 15.52 8.44c.17.1.29.29.29.53l-15.52-8.44c0-.24-.11-.43-.29-.53z"></path></defs><clipPath id="l"><use overflow="visible" xlink:href="#k"></use></clipPath><g clip-path="url(#l)"><path fill="#21394f" d="m42.27 44.46-15.52-8.44c0-.24-.11-.44-.29-.53l15.52 8.44c.18.1.29.29.29.53"></path></g><defs><path id="m" d="m26.46 35.49 15.52 8.44a.629.629 0 0 0-.34-.06l-15.52-8.44c.13-.01.25.01.34.06z"></path></defs><clipPath id="n"><use overflow="visible" xlink:href="#m"></use></clipPath><g clip-path="url(#n)"><path fill="#a4a5a7" d="m41.65 43.88-15.52-8.44c.08-.01.15-.01.22.01l15.52 8.44a.412.412 0 0 0-.22-.01"></path><path fill="#a0a2a4" d="m41.86 43.89-15.52-8.44c.03.01.07.02.1.04l15.52 8.44a.3.3 0 0 0-.1-.04"></path><path fill="#9d9ea0" d="m41.96 43.92-15.52-8.44c.01 0 .01.01.02.01l15.52 8.44s-.01 0-.02-.01"></path></g><path fill="#888a8c" d="M41.02 46.3 25.5 37.86V36.2l15.52 8.44z"></path><path fill="#cdcecf" d="M41.65 43.88c.35-.05.63.21.63.59v1.66c0 .38-.28.72-.63.77-.35.05-.63-.21-.63-.59v-1.66c0-.39.28-.73.63-.77z"></path><defs><path id="o" d="M41.02 44.64 25.5 36.2c0-.38.28-.72.63-.77l15.52 8.44c-.35.05-.63.39-.63.77z"></path></defs><clipPath id="p"><use overflow="visible" xlink:href="#o"></use></clipPath><g clip-path="url(#p)"><path fill="#8a8c8e" d="M41.02 44.64 25.5 36.2c0-.09.02-.18.05-.27l15.52 8.44c-.03.09-.05.18-.05.27"></path><path fill="#8e8f92" d="m41.07 44.37-15.52-8.44c.01-.04.03-.07.05-.11l15.52 8.44c-.02.04-.04.08-.05.11"></path><path fill="#929395" d="M41.11 44.27 25.6 35.82c.02-.03.03-.06.05-.08l15.52 8.44-.06.09"></path><path fill="#959799" d="m41.16 44.18-15.52-8.44c.02-.02.04-.05.06-.07l15.52 8.44c-.02.03-.04.05-.06.07"></path><path fill="#999a9c" d="M41.22 44.11 25.7 35.67l.06-.06 15.52 8.44-.06.06"></path><path fill="#9d9ea0" d="m41.28 44.05-15.52-8.44c.02-.02.05-.04.08-.06l15.52 8.44c-.03.02-.05.04-.08.06"></path><path fill="#a0a2a4" d="m41.36 43.99-15.52-8.44c.03-.02.07-.04.1-.06l15.52 8.44c-.03.02-.07.04-.1.06"></path><path fill="#a4a5a7" d="m41.46 43.93-15.52-8.44c.06-.03.12-.05.18-.06l15.52 8.44c-.06.01-.12.03-.18.06"></path></g><defs><path id="q" d="M49.72 26.55 34.2 18.11c.62.34 1.36.48 2.15.37 1.12-.16 2.13-.78 2.86-1.67.73-.9 1.18-2.05 1.19-3.26l15.52 8.44c0 1.21-.45 2.36-1.19 3.26-.73.89-1.74 1.52-2.86 1.67-.79.12-1.53-.03-2.15-.37z"></path></defs><clipPath id="r"><use overflow="visible" xlink:href="#q"></use></clipPath><g clip-path="url(#r)"><path fill="#9d9ea0" d="M49.72 26.55 34.2 18.11l.12.06 15.52 8.44a.338.338 0 0 1-.12-.06"></path><path fill="#a0a2a4" d="m49.84 26.62-15.52-8.44c.2.1.42.18.64.24l15.52 8.44c-.23-.06-.44-.14-.64-.24"></path><path fill="#a4a5a7" d="m50.48 26.85-15.52-8.44c.43.11.9.14 1.39.07.42-.06.82-.18 1.19-.36l15.52 8.44c-.38.18-.78.3-1.19.36-.49.07-.96.04-1.39-.07"></path><path fill="#a0a2a4" d="m53.06 26.57-15.52-8.44c.23-.11.44-.23.65-.38l15.52 8.44c-.21.14-.42.27-.65.38"></path><path fill="#9d9ea0" d="m53.71 26.19-15.52-8.44c.17-.12.33-.25.49-.38L54.2 25.8c-.16.14-.32.27-.49.39"></path><path fill="#999a9c" d="m54.2 25.8-15.52-8.44c.14-.13.28-.27.41-.41l15.52 8.44c-.13.15-.27.29-.41.41"></path><path fill="#959799" d="m54.61 25.39-15.52-8.44c.04-.05.08-.09.12-.14.08-.1.16-.2.23-.31l15.52 8.44c-.07.11-.15.21-.23.31-.04.05-.08.09-.12.14"></path><path fill="#929395" d="M54.96 24.94 39.44 16.5c.12-.17.23-.35.33-.54l15.52 8.44c-.1.19-.21.37-.33.54"></path><path fill="#8e8f92" d="m55.29 24.4-15.52-8.44c.12-.22.22-.45.31-.68l15.52 8.44c-.09.24-.19.47-.31.68"></path><path fill="#8a8c8e" d="m55.6 23.72-15.52-8.44c.2-.55.31-1.13.31-1.73l15.52 8.44c0 .6-.11 1.19-.31 1.73"></path></g><path fill="#20384e" d="m40.19 56.52-15.52-8.44.04-22.03 15.52 8.45z"></path><path fill="#777879" d="m39.2 56.66-15.52-8.44.05-22.03 15.51 8.44z"></path><defs><path id="s" d="m37.45 47.38-15.52-8.44c.1.05.21.07.34.06.34-.05.63-.39.63-.77l15.52 8.44c0 .38-.29.72-.63.76-.12.02-.24 0-.34-.05z"></path></defs><clipPath id="t"><use overflow="visible" xlink:href="#s"></use></clipPath><g clip-path="url(#t)"><path fill="#263f56" d="m37.45 47.38-15.52-8.44c.01 0 .01.01.02.01l15.52 8.44c0-.01-.01-.01-.02-.01"></path><path fill="#274058" d="m37.47 47.39-15.52-8.44a.3.3 0 0 0 .1.04l15.52 8.44c-.03-.02-.07-.03-.1-.04"></path><path fill="#284159" d="m37.57 47.42-15.52-8.44c.07.02.14.02.22.01.06-.01.12-.03.18-.05l15.52 8.44c-.06.03-.12.05-.18.05-.08.01-.15.01-.22-.01"></path><path fill="#274058" d="m37.97 47.38-15.52-8.44c.04-.02.07-.04.1-.06l15.52 8.44a.88.88 0 0 1-.1.06"></path><path fill="#263f56" d="m38.07 47.32-15.52-8.44c.03-.02.05-.04.08-.06l15.52 8.44c-.03.02-.05.04-.08.06"></path><path fill="#253e55" d="m38.15 47.26-15.52-8.44c.02-.02.04-.04.06-.07l15.52 8.44c-.02.03-.04.05-.06.07"></path><path fill="#243c53" d="M38.21 47.19 22.7 38.75c.02-.02.04-.05.06-.07l15.52 8.44-.07.07"></path><path fill="#233b52" d="m38.27 47.12-15.52-8.44c.02-.03.04-.05.05-.08l15.52 8.44c-.01.03-.03.05-.05.08"></path><path fill="#223a51" d="M38.32 47.04 22.8 38.6c.02-.03.03-.07.05-.11l15.52 8.44c-.01.04-.03.07-.05.11"></path><path fill="#21394f" d="m38.37 46.93-15.52-8.44c.03-.08.05-.17.05-.26l15.52 8.44c0 .09-.02.18-.05.26"></path></g><path fill="#20384e" d="M38.42 46.67 22.9 38.23v-1.67l15.52 8.45z"></path><defs><path id="u" d="m37.45 47.38-15.52-8.44a.602.602 0 0 1-.29-.53l15.52 8.44c0 .24.12.43.29.53z"></path></defs><clipPath id="v"><use overflow="visible" xlink:href="#u"></use></clipPath><g clip-path="url(#v)"><path fill="#8a8c8e" d="m37.45 47.38-15.52-8.44a.602.602 0 0 1-.29-.53l15.52 8.44c0 .24.12.43.29.53"></path></g><defs><path id="w" d="M22.9 36.56a.59.59 0 0 0-.29-.53l15.52 8.44c.18.1.29.29.29.53-4.65-2.53-10.86-5.9-15.52-8.44z"></path></defs><clipPath id="x"><use overflow="visible" xlink:href="#w"></use></clipPath><g clip-path="url(#x)"><path fill="#21394f" d="M38.42 45.01 22.9 36.56a.59.59 0 0 0-.29-.53l15.52 8.44c.17.1.29.29.29.54"></path></g><defs><path id="y" d="m22.61 36.03 15.52 8.44a.531.531 0 0 0-.33-.06l-15.52-8.44c.12-.01.23.01.33.06z"></path></defs><clipPath id="z"><use overflow="visible" xlink:href="#y"></use></clipPath><g clip-path="url(#z)"><path fill="#a4a5a7" d="m37.79 44.42-15.52-8.44a.49.49 0 0 1 .21.01L38 44.43a.48.48 0 0 0-.21-.01"></path><path fill="#a0a2a4" d="m38.01 44.43-15.52-8.44c.03.01.07.02.1.04l15.52 8.44c-.03-.02-.07-.03-.1-.04"></path><path fill="#9d9ea0" d="m38.11 44.46-15.52-8.44c.01 0 .01.01.02.01l15.52 8.44c-.01 0-.01 0-.02-.01"></path></g><path fill="#888a8c" d="M37.16 46.84 21.64 38.4l.01-1.66 15.52 8.44z"></path><defs><path id="A" d="m37.17 45.18-15.52-8.44c0-.38.28-.72.63-.77l15.52 8.44c-.35.06-.63.4-.63.77z"></path></defs><clipPath id="B"><use overflow="visible" xlink:href="#A"></use></clipPath><g clip-path="url(#B)"><path fill="#8a8c8e" d="m37.17 45.18-15.52-8.44c0-.09.02-.18.05-.27l15.52 8.44c-.04.09-.05.18-.05.27"></path><path fill="#8e8f92" d="M37.21 44.91 21.7 36.47c.01-.04.03-.07.05-.11l15.52 8.44c-.03.04-.04.08-.06.11"></path><path fill="#929395" d="m37.26 44.81-15.52-8.44c.02-.03.03-.06.05-.08l15.52 8.44c-.02.02-.03.05-.05.08"></path><path fill="#959799" d="m37.31 44.73-15.52-8.44c.02-.02.04-.05.06-.07l15.52 8.44c-.02.02-.04.04-.06.07"></path><path fill="#999a9c" d="m37.37 44.65-15.52-8.44.06-.06 15.52 8.44-.06.06"></path><path fill="#9d9ea0" d="m37.43 44.59-15.52-8.44c.02-.02.05-.04.08-.06l15.52 8.44c-.03.02-.05.04-.08.06"></path><path fill="#a0a2a4" d="m37.51 44.53-15.52-8.44c.03-.02.07-.04.1-.06l15.52 8.44a.88.88 0 0 0-.1.06"></path><path fill="#a4a5a7" d="m37.61 44.47-15.52-8.44c.06-.03.12-.05.18-.06l15.52 8.44c-.06.02-.12.03-.18.06"></path></g><path fill="#314d68" d="m30.02 57.95.04-22.02 9.18-1.29-.04 22.02-9.18 1.29zm7.15-12.77v1.66c0 .38.28.64.63.59.34-.05.63-.39.63-.76v-1.66c0-.38-.29-.64-.63-.59-.35.05-.63.39-.63.76"></path><path fill="#cdcecf" d="M37.79 44.42c.34-.05.63.21.63.59v1.66c0 .38-.29.72-.63.77-.35.05-.63-.21-.63-.59v-1.66c.01-.38.29-.72.63-.77z"></path><defs><path id="C" d="M49.72 26.55 34.2 18.11c-1.13-.61-1.88-1.87-1.88-3.43l15.52 8.44c0 1.56.75 2.82 1.88 3.43z"></path></defs><clipPath id="D"><use overflow="visible" xlink:href="#C"></use></clipPath><g clip-path="url(#D)"><path fill="#797a7b" d="M49.72 26.55 34.2 18.11c-1.13-.61-1.88-1.87-1.88-3.43l15.52 8.44c0 1.56.75 2.82 1.88 3.43"></path></g><path fill="#b1b2b2" d="M55.91 20.16v1.83c0 1.21-.45 2.36-1.19 3.26-.73.89-1.74 1.52-2.86 1.67-2.22.31-4.03-1.38-4.03-3.8v-1.83l8.08-1.13z"></path><path fill="#888a8c" d="m47.84 23.13-15.52-8.44v-1.84l15.52 8.45z"></path><path fill="#777879" d="m47.84 23.13-15.52-8.44v-1.84l15.52 8.45z"></path><path fill="#969798" d="m47.84 21.3-15.52-8.45 8.08-1.13 15.51 8.44z"></path><path fill="#2a445c" d="m40.23 34.5-15.52-8.45 9.19-1.29 15.52 8.45z"></path><path fill="#314d68" d="m40.23 34.5 9.18-1.29-.04 22.02-9.18 1.29.04-22.02zm2.04 11.63v-1.66c0-.38-.28-.64-.63-.59-.35.05-.63.39-.63.77v1.66c0 .38.28.64.63.59.35-.06.63-.4.63-.77"></path><path fill="#b1b2b2" d="m40.23 34.5-.04 22.02-.99.14.04-22.03z"></path><path fill="#969798" d="m39.24 34.63-15.51-8.44.98-.14 15.52 8.45z"></path><path fill="#c03f5a" d="M57.77 9.36 64 19.03l-8.09 1.13-4.41-9.92z"></path><path fill="#802238" d="M55.91 20.16 40.4 11.72 35.98 1.8l15.52 8.44z"></path><path fill="#a3334c" d="M51.5 10.24 35.98 1.8l6.28-.88 15.51 8.44z"></path><defs><path id="E" d="m41.63 27.69-15.52-8.44c.62.34 1.37.48 2.16.37 1.12-.16 2.13-.78 2.87-1.68.72-.9 1.18-2.05 1.19-3.26l15.52 8.44c0 1.21-.46 2.36-1.19 3.26-.74.89-1.75 1.52-2.87 1.68-.8.11-1.54-.03-2.16-.37z"></path></defs><clipPath id="F"><use overflow="visible" xlink:href="#E"></use></clipPath><g clip-path="url(#F)"><path fill="#9d9ea0" d="m41.63 27.69-15.52-8.44.12.06 15.52 8.44-.12-.06"></path><path fill="#a0a2a4" d="m41.75 27.75-15.52-8.44c.2.1.42.18.64.24l15.52 8.44a3.81 3.81 0 0 1-.64-.24"></path><path fill="#a4a5a7" d="m42.39 27.99-15.52-8.44c.44.11.91.14 1.4.07.42-.06.82-.18 1.19-.36l15.52 8.44c-.38.18-.78.3-1.19.36-.49.07-.96.04-1.4-.07"></path><path fill="#a0a2a4" d="m44.98 27.7-15.52-8.44c.23-.11.45-.23.66-.38l15.52 8.44c-.21.15-.43.27-.66.38"></path><path fill="#9d9ea0" d="m45.64 27.32-15.52-8.44c.17-.12.34-.25.49-.39l15.52 8.44c-.16.14-.32.27-.49.39"></path><path fill="#999a9c" d="m46.13 26.93-15.52-8.44c.15-.13.28-.27.42-.42l15.52 8.44c-.14.15-.28.29-.42.42"></path><path fill="#959799" d="m46.54 26.51-15.52-8.44c.04-.04.07-.09.11-.13.08-.1.15-.19.22-.29l15.52 8.44c-.07.1-.15.2-.22.29-.03.05-.07.09-.11.13"></path><path fill="#929395" d="m46.88 26.09-15.52-8.44c.12-.18.24-.36.34-.55l15.52 8.44c-.11.19-.22.37-.34.55"></path><path fill="#8e8f92" d="M47.21 25.54 31.7 17.1c.12-.22.22-.45.31-.69l15.52 8.44c-.09.24-.2.47-.32.69"></path><path fill="#8a8c8e" d="m47.53 24.85-15.52-8.44c.2-.54.31-1.13.31-1.72l15.52 8.44c0 .59-.11 1.18-.31 1.72"></path></g><defs><path id="G" d="m41.63 27.69-15.52-8.44c-1.13-.61-1.88-1.87-1.87-3.42l15.52 8.44c-.01 1.55.74 2.8 1.87 3.42z"></path></defs><clipPath id="H"><use overflow="visible" xlink:href="#G"></use></clipPath><g clip-path="url(#H)"><path fill="#741833" d="m41.63 27.69-15.52-8.44c-1.13-.61-1.88-1.87-1.87-3.42l15.52 8.44c-.01 1.55.74 2.8 1.87 3.42"></path></g><path fill="#888a8c" d="m39.75 24.26-15.51-8.44v-1.83l15.52 8.44z"></path><path fill="#a22d4c" d="M47.84 21.3v1.83c0 1.21-.46 2.36-1.19 3.26-.74.89-1.75 1.52-2.87 1.68-2.23.31-4.04-1.38-4.03-3.8v-1.83l8.09-1.14z"></path><path fill="#731732" d="m39.75 24.26-15.51-8.44v-1.83l15.52 8.44z"></path><path fill="#8c2441" d="m39.76 22.43-15.52-8.44 8.08-1.14 15.52 8.45z"></path><path fill="#828384" d="M45.22 11.12 29.71 2.68l6.27-.88 15.52 8.44z"></path><path fill="#9a9a9b" d="m51.5 10.24 4.41 9.92-8.07 1.14-2.62-10.18z"></path><path fill="#656768" d="m47.84 21.3-15.52-8.45-2.61-10.17 15.51 8.44z"></path><path fill="#20384e" d="M30.02 57.95 14.5 49.51l.04-22.03 15.52 8.45z"></path><path fill="#2a445c" d="m30.06 35.93-15.52-8.45 9.19-1.29 15.51 8.44z"></path><defs><path id="I" d="m33.54 28.82-15.52-8.44c.63.34 1.37.49 2.17.37 2.23-.31 4.04-2.52 4.04-4.93l15.52 8.44c0 2.41-1.81 4.62-4.04 4.93-.8.12-1.54-.03-2.17-.37z"></path></defs><clipPath id="J"><use overflow="visible" xlink:href="#I"></use></clipPath><g clip-path="url(#J)"><path fill="#9d9ea0" d="m33.54 28.82-15.52-8.44.12.06 15.52 8.44c-.04-.01-.08-.04-.12-.06"></path><path fill="#a0a2a4" d="m33.66 28.89-15.52-8.44c.2.1.42.18.64.24l15.52 8.44c-.22-.07-.44-.15-.64-.24"></path><path fill="#a4a5a7" d="m34.3 29.12-15.52-8.44c.44.11.91.14 1.41.07.41-.06.81-.18 1.18-.35l15.52 8.44c-.37.18-.77.3-1.18.35-.5.07-.97.05-1.41-.07"></path><path fill="#a0a2a4" d="M36.89 28.84 21.37 20.4c.23-.11.45-.23.66-.38l15.52 8.44c-.21.15-.43.27-.66.38"></path><path fill="#9d9ea0" d="m37.55 28.46-15.52-8.44c.17-.12.33-.25.49-.39l15.52 8.44c-.16.15-.33.28-.49.39"></path><path fill="#999a9c" d="m38.03 28.08-15.52-8.44c.14-.13.28-.27.41-.42l15.52 8.44c-.13.15-.26.29-.41.42"></path><path fill="#959799" d="m38.44 27.66-15.52-8.44c.13-.15.25-.3.36-.46L38.8 27.2c-.11.16-.23.32-.36.46"></path><path fill="#929395" d="m38.81 27.2-15.52-8.44c.12-.17.23-.35.33-.53l15.52 8.44c-.1.18-.21.36-.33.53"></path><path fill="#8e8f92" d="m39.14 26.67-15.52-8.44c.12-.22.22-.45.31-.68l15.52 8.44c-.09.23-.2.46-.31.68"></path><path fill="#8a8c8e" d="m39.44 25.99-15.52-8.44c.2-.54.31-1.13.31-1.72l15.52 8.44c0 .59-.11 1.17-.31 1.72"></path></g><path fill="#a3334c" d="M39.78 11.89 24.26 3.45l5.45-.77 15.51 8.44z"></path><path fill="#c03f5a" d="m45.22 11.12 2.62 10.18-8.08 1.13.02-10.54z"></path><path fill="#812339" d="m39.76 22.43-15.52-8.44.02-10.54 15.52 8.44z"></path><defs><path id="K" d="m33.54 28.82-15.52-8.44c-.25-.14-.48-.3-.69-.5-.72-.69-1.18-1.72-1.17-2.92l15.52 8.44c0 1.21.45 2.23 1.17 2.92.21.2.44.37.69.5z"></path></defs><clipPath id="L"><use overflow="visible" xlink:href="#K"></use></clipPath><g clip-path="url(#L)"><path fill="#797a7b" d="m33.54 28.82-15.52-8.44c-.25-.14-.48-.3-.69-.5-.72-.69-1.18-1.72-1.17-2.92l15.52 8.44c0 1.21.45 2.23 1.17 2.92.21.2.44.37.69.5"></path></g><path fill="#777879" d="m31.68 25.4-15.52-8.44v-1.83l15.52 8.44z"></path><path fill="#b1b2b2" d="M39.76 22.43v1.83c0 2.41-1.81 4.62-4.04 4.93-1.12.16-2.13-.19-2.86-.87-.72-.69-1.18-1.72-1.17-2.92v-1.83l8.07-1.14z"></path><path fill="#969798" d="m31.68 23.57-15.52-8.44 8.08-1.14 15.52 8.44z"></path><path fill="#adaeb0" d="m31.68 23.57-15.52-8.44 8.08-1.14 15.52 8.44z"></path><defs><path id="M" d="M25.47 29.96 9.95 21.52c.62.34 1.37.48 2.16.37 2.23-.31 4.04-2.52 4.04-4.93l15.52 8.44c0 2.41-1.81 4.62-4.04 4.93-.79.11-1.54-.03-2.16-.37z"></path></defs><clipPath id="N"><use overflow="visible" xlink:href="#M"></use></clipPath><g clip-path="url(#N)"><path fill="#9d9ea0" d="M25.47 29.96 9.95 21.52l.12.06 15.52 8.44-.12-.06"></path><path fill="#a0a2a4" d="m25.59 30.02-15.52-8.44c.2.1.41.18.63.23l15.52 8.44c-.22-.05-.43-.13-.63-.23"></path><path fill="#a4a5a7" d="M26.22 30.26 10.7 21.82c.44.11.92.14 1.41.07.41-.06.81-.18 1.18-.35l15.52 8.44c-.37.18-.77.3-1.18.35-.5.07-.97.04-1.41-.07"></path><path fill="#a0a2a4" d="m28.81 29.98-15.52-8.44c.23-.11.45-.23.66-.38l15.52 8.44c-.21.14-.43.27-.66.38"></path><path fill="#9d9ea0" d="m29.47 29.6-15.52-8.44c.17-.12.33-.25.49-.39l15.52 8.44c-.16.14-.32.27-.49.39"></path><path fill="#999a9c" d="m29.95 29.21-15.52-8.44c.14-.13.28-.27.41-.42l15.52 8.44c-.12.15-.26.29-.41.42"></path><path fill="#959799" d="m30.37 28.8-15.52-8.44c.13-.15.25-.3.36-.46l15.52 8.44c-.11.16-.24.31-.36.46"></path><path fill="#929395" d="M30.73 28.34 15.21 19.9c.12-.17.23-.35.33-.53l15.52 8.44c-.1.18-.21.36-.33.53"></path><path fill="#8e8f92" d="m31.06 27.8-15.52-8.44c.12-.22.22-.45.31-.68l15.52 8.44c-.09.24-.2.46-.31.68"></path><path fill="#8a8c8e" d="m31.36 27.12-15.52-8.44c.2-.54.31-1.13.31-1.72l15.52 8.44c0 .6-.11 1.18-.31 1.72"></path></g><path fill="#6b6d6e" d="m31.68 23.57-15.52-8.44 2.66-10.92 15.52 8.44z"></path><path fill="#828384" d="M34.34 12.65 18.82 4.21l5.44-.76 15.52 8.44z"></path><path fill="#9a9a9b" d="m39.78 11.89-.02 10.54-8.08 1.14 2.66-10.92z"></path><defs><path id="O" d="M25.47 29.96 9.95 21.52c-.25-.14-.48-.31-.69-.5-.73-.69-1.18-1.72-1.18-2.92l15.52 8.44c0 1.21.45 2.23 1.18 2.92.21.2.44.36.69.5z"></path></defs><clipPath id="P"><use overflow="visible" xlink:href="#O"></use></clipPath><g clip-path="url(#P)"><path fill="#741833" d="M25.47 29.96 9.95 21.52c-.25-.14-.48-.31-.69-.5-.73-.69-1.18-1.72-1.18-2.92l15.52 8.44c0 1.21.45 2.23 1.18 2.92.21.2.44.36.69.5"></path></g><defs><path id="Q" d="M6.89 21.35c.73-.9 1.18-2.05 1.19-3.26l15.52 8.44c0 1.21-.45 2.36-1.19 3.26-5.17-2.81-10.34-5.63-15.52-8.44z"></path></defs><clipPath id="R"><use overflow="visible" xlink:href="#Q"></use></clipPath><g clip-path="url(#R)"><path fill="#959799" d="M22.3 29.92 6.78 21.48c.04-.04.07-.09.11-.13.08-.1.16-.2.23-.31l15.52 8.44c-.07.11-.15.21-.23.31-.03.05-.07.09-.11.13"></path><path fill="#929395" d="M22.64 29.48 7.13 21.04c.12-.17.23-.35.33-.54l15.52 8.44c-.1.19-.22.37-.34.54"></path><path fill="#8e8f92" d="M22.98 28.95 7.46 20.5c.12-.22.22-.45.31-.68l15.52 8.44c-.09.24-.2.47-.31.69"></path><path fill="#8a8c8e" d="M23.28 28.26 7.77 19.82c.2-.55.31-1.13.31-1.73l15.52 8.44c0 .6-.12 1.19-.32 1.73"></path></g><path fill="#731732" d="M23.6 26.54 8.08 18.09v-1.83L23.6 24.7z"></path><path fill="#a22d4c" d="M31.68 23.57v1.83c0 2.41-1.81 4.62-4.04 4.93-1.12.16-2.13-.19-2.85-.87-.73-.69-1.18-1.72-1.18-2.92v-1.83l8.07-1.14z"></path><path fill="#8c2441" d="M23.6 24.7 8.08 16.26l8.08-1.13 15.52 8.44z"></path><path fill="#888a8c" d="M23.6 26.54 8.08 18.09v-1.83L23.6 24.7z"></path><defs><path id="S" d="M4.03 23.02c1.12-.16 2.13-.78 2.87-1.68 5.17 2.81 10.35 5.63 15.52 8.44-.74.89-1.74 1.52-2.87 1.68-5.18-2.81-10.35-5.62-15.52-8.44z"></path></defs><clipPath id="T"><use overflow="visible" xlink:href="#S"></use></clipPath><g clip-path="url(#T)"><path fill="#a4a5a7" d="M18.61 31.48 3.09 23.04c.3.04.62.03.94-.01.42-.06.82-.18 1.2-.36l15.52 8.44c-.38.18-.78.3-1.2.36-.33.04-.64.05-.94.01"></path><path fill="#a0a2a4" d="M20.74 31.11 5.22 22.67c.23-.11.44-.23.65-.38l15.52 8.44c-.2.14-.42.27-.65.38"></path><path fill="#9d9ea0" d="M21.39 30.73 5.87 22.29c.17-.12.33-.25.49-.39l15.52 8.44c-.15.14-.32.27-.49.39"></path><path fill="#999a9c" d="M21.88 30.34 6.37 21.9c.15-.13.29-.27.42-.42l15.52 8.44c-.14.15-.28.29-.43.42"></path><path fill="#959799" d="M22.3 29.92 6.78 21.48c.04-.04.07-.09.11-.13.08-.1.16-.2.23-.31l15.52 8.44c-.07.11-.15.21-.23.31-.03.05-.07.09-.11.13"></path></g><path fill="#888a8c" d="M18.55 59.56 3.03 51.12l.06-28.08 15.52 8.44z"></path><defs><path id="U" d="M3.09 23.04c.3.04.62.03.94-.01 5.17 2.81 10.35 5.63 15.52 8.44-.32.05-.64.05-.94.01-4.66-2.53-10.87-5.91-15.52-8.44z"></path></defs><clipPath id="V"><use overflow="visible" xlink:href="#U"></use></clipPath><g clip-path="url(#V)"><path fill="#a4a5a7" d="M18.61 31.48 3.09 23.04c.3.04.62.03.94-.01.42-.06.82-.18 1.2-.36l15.52 8.44c-.38.18-.78.3-1.2.36-.33.04-.64.05-.94.01"></path></g><path fill="#cdcecf" d="M47.84 21.3v1.83c0 2.41 1.81 4.11 4.03 3.8 1.12-.16 2.13-.78 2.86-1.67.73-.9 1.18-2.05 1.19-3.26 0 2.41 1.81 4.11 4.04 3.79.32-.05.63-.13.93-.25l-.05 28.08-11.46 1.61.04-22.02-9.18 1.29-.99.14-9.18 1.29-.04 22.02-11.47 1.61.05-28.08c.3.04.62.03.94-.01 1.12-.16 2.13-.78 2.87-1.68.73-.9 1.18-2.05 1.19-3.26V24.7v1.83c0 1.21.45 2.23 1.18 2.92.72.69 1.74 1.03 2.85.87 2.23-.31 4.04-2.52 4.04-4.93 0 1.21.45 2.23 1.17 2.92.73.68 1.74 1.03 2.86.87 2.23-.31 4.04-2.52 4.04-4.93v-1.83l-8.08 1.14 8.08-1.14v1.83c0 2.41 1.81 4.11 4.03 3.8 1.12-.16 2.13-.78 2.87-1.68.72-.9 1.18-2.05 1.19-3.26V21.3z"></path><path fill="#c03f5a" d="m34.34 12.65-2.66 10.92-8.08 1.13 4.45-11.16z"></path><path fill="#8b283f" d="M23.6 24.7 8.08 16.26l4.45-11.17 15.52 8.45z"></path><path fill="#a3334c" d="M28.05 13.54 12.53 5.09l6.29-.88 15.52 8.44z"></path><defs><path id="W" d="M17.39 31.1 1.87 22.65C.74 22.04 0 20.78 0 19.23l15.52 8.44c0 1.56.74 2.81 1.87 3.43z"></path></defs><clipPath id="X"><use overflow="visible" xlink:href="#W"></use></clipPath><g clip-path="url(#X)"><path fill="#797a7b" d="M17.39 31.1 1.87 22.65C.74 22.04 0 20.78 0 19.23l15.52 8.44c0 1.56.74 2.81 1.87 3.43"></path></g><path fill="#828384" d="M21.78 14.42 6.26 5.98l6.27-.89 15.52 8.45z"></path><path fill="#b1b2b2" d="M23.6 24.7v1.83c0 1.21-.45 2.36-1.19 3.26-.74.89-1.74 1.52-2.87 1.68-.32.05-.64.05-.94.01-1.77-.21-3.09-1.75-3.09-3.81v-1.83l8.09-1.14z"></path><path fill="#969798" d="M15.52 25.84 0 17.4l8.08-1.14L23.6 24.7z"></path><path fill="#737575" d="M15.52 25.84 0 17.4 6.26 5.98l15.52 8.44z"></path><path fill="#777879" d="M15.52 27.67 0 19.23V17.4l15.52 8.44z"></path><path fill="#9a9a9b" d="M28.05 13.54 23.6 24.7l-8.08 1.14 6.26-11.42z"></path></svg>